<svg width="200" height="200" viewBox="0 0 200 200" fill="none" xmlns="http://www.w3.org/2000/svg">
<g clip-path="url(#clip0_17018_143691)">
<path d="M98.378 131.812V102.022H70.332C69.8954 107.155 67.6317 111.767 64.1939 115.205C60.3537 119.045 55.0487 121.42 49.1891 121.42C43.3294 121.42 38.0243 119.045 34.1841 115.205C30.7463 111.767 28.4826 107.155 28.0461 102.022H-0.00012207V189.88C-0.00012207 195.69 4.7097 200.4 10.5196 200.4H98.378V170.609C98.378 169.603 99.1938 168.787 100.2 168.787C105.054 168.787 109.448 166.82 112.629 163.639C115.809 160.459 117.777 156.065 117.777 151.211C117.777 146.357 115.809 141.963 112.629 138.782C109.448 135.602 105.054 133.634 100.2 133.634C99.1939 133.634 98.378 132.818 98.378 131.812Z" fill="#00D8D5"/>
<path d="M78.9996 50.1037C78.9917 49.9081 78.9893 49.8315 78.9872 49.7544L78.9865 49.728C78.9844 49.6453 78.9827 49.5626 78.9817 49.4797L78.9813 49.4369C78.9804 49.3545 78.9797 49.2718 78.9797 49.1891C78.9797 43.3294 81.355 38.0242 85.195 34.1841C88.6329 30.7461 93.2452 28.4824 98.378 28.0461V0H10.5196C4.7097 0 -0.00012207 4.70982 -0.00012207 10.5197V98.3781H29.7904C30.7965 98.3781 31.6123 99.1939 31.6123 100.2C31.6123 105.054 33.5798 109.448 36.7603 112.629C39.9409 115.809 44.3352 117.777 49.1891 117.777C54.0429 117.777 58.4371 115.809 61.6177 112.629C64.7982 109.448 66.7657 105.054 66.7657 100.2C66.7657 99.1939 67.5815 98.3781 68.5876 98.3781H98.378V70.332C93.2452 69.8956 88.6329 67.6318 85.195 64.1939C81.798 60.7969 79.5478 56.2534 79.0736 51.1937L79.0711 51.1688L79.0573 51.0121L79.0439 50.8479L79.0351 50.7288L79.0286 50.6357L79.0209 50.5187L79.0113 50.3537L78.9996 50.1037Z" fill="#FF4C8B"/>
<path d="M102.022 0V29.7904C102.022 30.7965 101.206 31.6123 100.2 31.6123C95.3461 31.6123 90.9518 33.5798 87.7713 36.7602C84.5908 39.9409 82.6235 44.3352 82.6235 49.1891C82.6235 49.2595 82.624 49.33 82.6248 49.4003L82.6252 49.4273L82.6291 49.6346L82.6298 49.6579C82.6335 49.8006 82.6387 49.943 82.6459 50.0849L82.6467 50.1007C82.8762 54.5918 84.7912 58.6375 87.7713 61.6177C90.9518 64.7982 95.3461 66.7657 100.2 66.7657C101.206 66.7657 102.022 67.5815 102.022 68.5876V98.3781H130.068C130.504 93.2453 132.768 88.6328 136.206 85.1951C140.046 81.3549 145.351 78.9797 151.211 78.9797C157.07 78.9797 162.376 81.3549 166.216 85.1951C169.654 88.6328 171.917 93.2453 172.354 98.3781H200.4V10.5197C200.4 4.70982 195.69 0 189.88 0H102.022Z" fill="#00D8D5"/>
<path d="M200.4 102.022H170.61C169.604 102.022 168.788 101.206 168.788 100.2C168.788 95.3462 166.821 90.9518 163.64 87.7714C160.46 84.5908 156.065 82.6234 151.211 82.6234C146.357 82.6234 141.963 84.5908 138.783 87.7714C135.602 90.9518 133.635 95.3462 133.635 100.2C133.635 101.206 132.819 102.022 131.813 102.022H102.022V130.068C107.155 130.504 111.768 132.768 115.205 136.206C119.046 140.046 121.421 145.351 121.421 151.211C121.421 157.07 119.046 162.376 115.205 166.216C111.768 169.654 107.155 171.917 102.022 172.354V200.4H189.881C195.691 200.4 200.4 195.69 200.4 189.88V102.022Z" fill="#FF4C8B"/>
</g>
<defs>
<clipPath id="clip0_17018_143691">
<rect width="200" height="200" fill="white"/>
</clipPath>
</defs>
</svg>
